<svg width="112" height="49" viewBox="0 0 112 49" fill="none" xmlns="http://www.w3.org/2000/svg">
<path d="M0.989973 14.1001C1.63997 14.7001 1.33997 15.4801 1.33997 16.1801C1.35997 27.1001 1.34997 38.0201 1.34997 48.9401C0.58997 48.6101 1.00997 47.9501 0.999972 47.4701C0.979972 36.3401 0.989973 25.2201 0.989973 14.1001Z" fill="#B9B5BE"/>
<path d="M40.33 39.79C42.5 32.07 44.24 24.35 45.7 16.61C46.19 14.04 47.01 13.57 49.13 13.62C49.85 13.64 50.56 13.26 51.43 13.52C51.04 14.5 51.17 15.47 51.42 16.47C52.96 22.67 54.44 28.9 55.97 35.1C56.18 35.97 56.58 36.8 56.9 37.67C56.59 38.09 56.13 37.9 55.74 37.95C54.53 38.11 53.11 38.65 52.16 38.21C51.57 37.94 51.75 36.14 51.44 35.07C51.24 34.36 51.38 33.06 50.06 33.42C48.63 33.81 46.51 32.7 45.92 35.07C45.63 36.24 45.06 37.38 45.28 38.63C45.37 39.14 45.13 39.29 44.72 39.34C43.26 39.49 41.8 39.63 40.33 39.79ZM48.74 21.86C48.65 21.85 48.56 21.83 48.46 21.82C48.08 23.78 47.68 25.73 47.32 27.69C47.23 28.18 46.65 28.91 47.33 29.13C48.03 29.36 48.93 29.24 49.66 29.02C50.35 28.81 50.04 28.06 49.94 27.57C49.58 25.66 49.15 23.76 48.74 21.86Z" fill="#111013"/>
<path d="M31.8 31.3801C32.64 26.8901 33.72 22.4301 34.23 17.9001C34.49 15.5701 35.4 14.8901 37.47 14.9601C38.13 14.9801 38.8 14.8601 39.48 14.8101C37.33 22.3501 36.25 30.0101 34.53 37.5301C34.48 37.7701 34.4 38.0301 34.44 38.2501C34.99 40.8101 33.26 40.8101 31.54 40.8701C30.93 40.8901 30.33 41.0301 29.72 41.1201C29.26 41.1901 28.89 41.2401 28.91 40.5401C29.05 36.8301 27.71 33.3601 26.95 29.8101C26.06 25.6601 25.51 21.4001 23.92 17.4101C23.62 16.6701 24.09 16.6101 24.62 16.5501C26.01 16.3901 27.39 16.2101 28.67 16.0501C29.35 21.3101 30.57 26.3501 31.8 31.3801Z" fill="#121114"/>
<path d="M106.9 6.72998C104.32 12.34 102.62 18 100.95 23.63C100.24 26.04 100.85 28.84 100.87 31.46C100.87 31.57 100.96 31.69 101 31.8C101.16 32.19 101.16 32.58 100.67 32.64C99.22 32.83 97.75 33.08 96.3 33.04C95.74 33.03 96.33 32.36 96.33 31.99C96.33 28.49 96.98 24.97 95.45 21.55C94.29 18.95 93.41 16.21 92.43 13.53C91.85 11.94 91.36 10.31 90.25 8.99998C90.37 8.84998 90.44 8.68998 90.51 8.68998C92.22 8.58998 94.25 7.53998 95.51 8.39998C96.53 9.09998 96.54 11.26 97.01 12.77C97.47 14.25 97.94 15.72 98.59 17.21C99.41 14.13 101.07 11.29 101.03 8.04998C101.02 7.23998 101.42 7.43998 101.71 7.39998C103.4 7.14998 105.1 6.95998 106.9 6.72998Z" fill="#131215"/>
<path d="M66.1 21.2099C66.86 18.7099 68.12 16.23 68.23 13.7C68.36 10.85 70.08 11.11 71.8 10.88C72.58 10.78 73.38 10.76 74.26 10.7C71.98 15.48 70.78 20.51 68.94 25.32C67.69 28.58 68.04 31.91 68.32 35.23C68.39 36.12 68.42 36.5 67.38 36.62C66.04 36.77 64.72 36.92 63.45 36.8C65.7 27.82 60.51 20.63 57.99 12.65C59.55 12.11 61.51 12.32 63.39 11.81C63.37 15.29 65.2 18.0899 66.1 21.2099Z" fill="#0F0F11"/>
<path d="M14.91 25.81C15.32 27.83 15.73 29.86 16.15 31.88C16.25 32.36 16.44 32.95 15.79 33.08C15.03 33.24 14.2 33.49 13.46 33.15C12.92 32.9 13.39 32.39 13.46 32.02C13.84 29.93 14.26 27.85 14.66 25.77C14.73 25.78 14.82 25.79 14.91 25.81Z" fill="#F3F2F3"/>
<path d="M48.74 21.8601C49.15 23.7601 49.58 25.6601 49.95 27.5701C50.05 28.0701 50.35 28.8101 49.67 29.0201C48.94 29.2401 48.04 29.3601 47.34 29.1301C46.66 28.9101 47.24 28.1801 47.33 27.6901C47.69 25.7301 48.08 23.7701 48.47 21.8201C48.56 21.8301 48.65 21.8401 48.74 21.8601Z" fill="#F0F0F1"/>
<path d="M0.989983 13.7299C5.64998 13.2199 10.32 12.7399 14.98 12.1999C19.76 11.6499 24.53 11.0499 29.31 10.4599C36.08 9.6299 42.84 8.7699 49.61 7.9599C55.18 7.2899 60.75 6.69991 66.32 6.03991C72.01 5.36991 77.69 4.6299 83.37 3.9599C89.12 3.2899 94.88 2.6699 100.63 2.0099C103.96 1.6299 107.28 1.2199 110.6 0.769905C111.13 0.699905 111.44 0.659905 111.42 1.28991C110.94 1.72991 111.11 2.3099 111.11 2.8399C111.1 13.1499 111.1 23.4599 111.11 33.7699C111.11 34.2999 110.94 34.8799 111.42 35.3299C110.24 36.7899 108.48 36.1499 107.03 36.3599C100.16 37.3499 93.26 38.1199 86.36 38.9199C80.61 39.5899 74.85 40.1899 69.1 40.8599C64.69 41.3699 60.28 41.9599 55.87 42.4799C51.09 43.0499 46.31 43.5799 41.53 44.1499C36.15 44.7899 30.77 45.4599 25.39 46.1099C20.61 46.6899 15.82 47.1899 11.06 47.8499C8.42998 48.2099 5.73998 48.0999 3.17998 48.9399C2.56998 48.9399 1.94998 48.9399 1.33998 48.9399C1.33998 38.0199 1.34998 27.0999 1.32998 16.1799C1.32998 15.4899 1.62998 14.6999 0.97998 14.0999C0.98998 13.9699 0.989983 13.8499 0.989983 13.7299ZM3.58998 16.2999C2.99998 16.7599 3.21998 17.4199 3.20998 17.9999C3.19998 26.7599 3.19998 35.5199 3.20998 44.2899C3.20998 44.8699 2.99998 45.5299 3.57998 45.9899C3.69998 45.9899 3.82998 45.9799 3.94998 45.9799C4.48998 45.8799 5.01998 45.7299 5.55998 45.6699C10.22 45.1499 14.9 44.6799 19.56 44.1199C26.22 43.3199 32.87 42.4299 39.53 41.6399C47.22 40.7299 54.92 39.9199 62.61 38.9999C70.24 38.0899 77.85 37.0699 85.48 36.1499C92.87 35.2599 100.26 34.3999 107.65 33.5899C108.6 33.4899 108.89 33.1699 108.89 32.2499C108.86 23.2099 108.86 14.1699 108.89 5.12991C108.89 4.06991 108.52 3.69991 107.49 3.82991C103.19 4.34991 98.89 4.8499 94.59 5.3699C88.78 6.0699 82.97 6.77991 77.16 7.48991C72.5 8.05991 67.84 8.6299 63.18 9.1899C57.79 9.8399 52.4 10.4999 47.01 11.1299C42.34 11.6699 37.67 12.1499 33 12.7099C27.25 13.3899 21.5 14.1099 15.75 14.8199C11.82 15.3099 7.87998 15.8099 3.94998 16.2999C3.82998 16.2999 3.70998 16.2999 3.58998 16.2999Z" fill="#ADA6D1"/>
<path d="M111.43 35.33C110.96 34.89 111.12 34.3 111.12 33.77C111.11 23.46 111.11 13.15 111.12 2.84004C111.12 2.31004 110.95 1.73004 111.43 1.29004C111.43 12.64 111.43 23.99 111.43 35.33Z" fill="#9F9AC8"/>
<path d="M3.96001 16.2901C7.89001 15.8001 11.82 15.3001 15.76 14.8101C21.5 14.1001 27.25 13.3801 33 12.7001C37.67 12.1501 42.34 11.6701 47.01 11.1201C52.4 10.4901 57.79 9.83011 63.18 9.18011C67.84 8.62011 72.5 8.05011 77.16 7.48011C82.97 6.77011 88.78 6.06011 94.59 5.36011C98.89 4.84011 103.19 4.35011 107.49 3.82011C108.52 3.69011 108.9 4.06011 108.89 5.12011C108.86 14.1601 108.86 23.2001 108.89 32.2401C108.89 33.1601 108.6 33.4801 107.65 33.5801C100.26 34.3901 92.86 35.2501 85.48 36.1401C77.85 37.0601 70.24 38.0801 62.61 38.9901C54.92 39.9101 47.22 40.7201 39.53 41.6301C32.87 42.4201 26.22 43.3101 19.56 44.1101C14.9 44.6701 10.23 45.1401 5.56001 45.6601C5.02001 45.7201 4.48001 45.8601 3.95001 45.9701C3.95001 36.0901 3.95001 26.1901 3.96001 16.2901ZM23.3 41.8301C22.45 40.5301 22.2 39.2901 21.9 38.0601C20.7 33.0301 19.44 28.0101 18.25 22.9801C17.83 21.1901 16.92 19.4601 17.64 17.3601C16.74 17.4701 16.02 17.6501 15.31 17.6401C13.18 17.5901 11.53 17.9601 12.02 20.6901C12.05 20.8501 11.93 21.0401 11.88 21.2201C10.07 28.7101 8.59001 36.2701 6.52001 43.8101C7.98001 43.6601 9.38001 43.5301 10.77 43.3701C11.15 43.3201 11.64 43.3801 11.46 42.6401C11.19 41.5301 11.88 40.5201 11.97 39.4501C12.08 38.1201 12.83 37.6701 14.02 37.6201C14.57 37.6001 15.15 37.6201 15.67 37.4701C16.86 37.1201 17.37 37.6501 17.57 38.7401C17.79 39.9501 17.67 41.8901 18.33 42.2001C19.37 42.6901 20.93 42.1001 22.27 41.9601C22.48 41.9301 22.72 41.9001 23.3 41.8301ZM40.33 39.7901C41.81 39.6401 43.26 39.4901 44.72 39.3301C45.12 39.2901 45.37 39.1401 45.28 38.6201C45.06 37.3701 45.62 36.2301 45.92 35.0601C46.51 32.6901 48.63 33.8001 50.06 33.4101C51.38 33.0501 51.24 34.3501 51.44 35.0601C51.74 36.1301 51.57 37.9301 52.16 38.2001C53.11 38.6401 54.53 38.1001 55.74 37.9401C56.13 37.8901 56.6 38.0801 56.9 37.6601C56.58 36.7901 56.19 35.9601 55.97 35.0901C54.44 28.8801 52.96 22.6601 51.42 16.4601C51.17 15.4601 51.04 14.4901 51.43 13.5101C50.56 13.2501 49.85 13.6301 49.13 13.6101C47.01 13.5501 46.19 14.0201 45.7 16.6001C44.23 24.3501 42.49 32.0601 40.33 39.7901ZM31.8 31.3801C30.57 26.3501 29.36 21.3101 28.67 16.0501C27.39 16.2101 26.01 16.3901 24.62 16.5501C24.09 16.6101 23.63 16.6701 23.92 17.4101C25.51 21.4001 26.06 25.6501 26.95 29.8101C27.71 33.3601 29.05 36.8301 28.91 40.5401C28.88 41.2401 29.26 41.1901 29.72 41.1201C30.33 41.0301 30.93 40.8901 31.54 40.8701C33.26 40.8101 34.99 40.8101 34.44 38.2501C34.39 38.0201 34.47 37.7601 34.53 37.5301C36.26 30.0101 37.33 22.3501 39.48 14.8101C38.8 14.8701 38.13 14.9901 37.47 14.9601C35.4 14.8901 34.49 15.5701 34.23 17.9001C33.71 22.4301 32.64 26.8901 31.8 31.3801ZM106.9 6.73011C105.11 6.95011 103.41 7.15012 101.72 7.40012C101.44 7.44012 101.03 7.24011 101.04 8.05011C101.08 11.2901 99.42 14.1301 98.6 17.2101C97.94 15.7201 97.47 14.2501 97.02 12.7701C96.55 11.2601 96.54 9.10012 95.52 8.40012C94.27 7.55011 92.23 8.60011 90.52 8.69011C90.45 8.69011 90.38 8.85011 90.26 9.00011C91.37 10.3001 91.86 11.9301 92.44 13.5301C93.41 16.2201 94.29 18.9501 95.46 21.5501C96.99 24.9701 96.34 28.4901 96.34 31.9901C96.34 32.3601 95.76 33.0301 96.31 33.0401C97.76 33.0701 99.23 32.8201 100.68 32.6401C101.17 32.5801 101.17 32.1901 101.01 31.8001C100.96 31.6901 100.88 31.5801 100.88 31.4601C100.86 28.8401 100.24 26.0401 100.96 23.6301C102.61 18.0101 104.31 12.3501 106.9 6.73011ZM66.1 21.2101C65.2 18.1001 63.37 15.2901 63.4 11.8201C61.52 12.3301 59.56 12.1201 58 12.6601C60.52 20.6401 65.7 27.8201 63.46 36.8101C64.72 36.9301 66.05 36.7801 67.39 36.6301C68.43 36.5101 68.41 36.1401 68.33 35.2401C68.05 31.9201 67.7 28.6001 68.95 25.3301C70.79 20.5301 71.99 15.4901 74.27 10.7101C73.39 10.7701 72.59 10.7801 71.81 10.8901C70.09 11.1201 68.37 10.8601 68.24 13.7101C68.12 16.2301 66.86 18.7101 66.1 21.2101ZM80.83 9.88011C80.51 9.92011 79.98 9.98011 79.45 10.0401C78.48 10.1601 77.35 10.0101 76.57 10.4601C75.43 11.1201 76.57 12.2401 76.55 13.1701C76.43 18.9101 76.51 24.6501 76.47 30.3901C76.46 31.8401 76.71 33.3001 76.19 34.7401C75.83 35.7201 76.61 35.4701 77.12 35.4101C80.65 35.0101 84.18 34.6101 87.71 34.2301C88.24 34.1701 88.68 34.0801 88.77 33.4601C88.96 32.1101 89.43 30.7801 89.28 29.3201C86.86 30.2801 84.37 30.1501 81.97 30.6001C81.22 30.7401 80.82 30.4901 80.82 29.6601C80.84 23.0801 80.83 16.5201 80.83 9.88011Z" fill="#FCFCFC"/>
<path d="M3.58002 45.99C3.00002 45.52 3.21002 44.8701 3.21002 44.2901C3.20002 35.5301 3.20002 26.7701 3.21002 18C3.21002 17.42 3.00002 16.76 3.58002 16.3C3.58002 26.2 3.58002 36.1 3.58002 45.99Z" fill="#B3ACD6"/>
<path d="M3.58002 45.99C3.58002 36.09 3.58002 26.2 3.59002 16.3C3.71002 16.3 3.84001 16.29 3.96001 16.29C3.96001 26.19 3.96002 36.08 3.95002 45.98C3.83002 45.99 3.70002 45.99 3.58002 45.99Z" fill="#A29CB4"/>
<path d="M23.3 41.8301C22.73 41.9001 22.49 41.9301 22.24 41.9501C20.9 42.0901 19.34 42.6801 18.3 42.1901C17.64 41.8801 17.76 39.9401 17.54 38.7301C17.35 37.6401 16.84 37.1201 15.64 37.4601C15.12 37.6101 14.55 37.5801 13.99 37.6101C12.8 37.6601 12.06 38.1101 11.94 39.4401C11.85 40.5101 11.16 41.5201 11.43 42.6301C11.61 43.3601 11.12 43.3101 10.74 43.3601C9.34999 43.5301 7.94999 43.6501 6.48999 43.8001C8.56999 36.2601 10.04 28.7001 11.85 21.2101C11.89 21.0301 12.02 20.8501 11.99 20.6801C11.49 17.9501 13.15 17.5801 15.28 17.6301C15.99 17.6501 16.71 17.4701 17.61 17.3501C16.89 19.4501 17.8 21.1901 18.22 22.9701C19.41 28.0001 20.67 33.0201 21.87 38.0501C22.19 39.2901 22.45 40.5301 23.3 41.8301ZM14.91 25.8101C14.82 25.8001 14.73 25.7901 14.65 25.7701C14.25 27.8501 13.83 29.9301 13.45 32.0201C13.38 32.3901 12.91 32.9001 13.45 33.1501C14.19 33.4901 15.02 33.2301 15.78 33.0801C16.43 32.9501 16.24 32.3601 16.14 31.8801C15.73 29.8501 15.32 27.8301 14.91 25.8101Z" fill="#121114"/>
<path d="M80.83 9.87988C80.83 16.5199 80.84 23.0799 80.82 29.6399C80.82 30.4799 81.22 30.7199 81.97 30.5799C84.37 30.1399 86.86 30.2599 89.28 29.2999C89.43 30.7599 88.96 32.0899 88.77 33.4399C88.68 34.0699 88.24 34.1599 87.71 34.2099C84.18 34.5899 80.65 34.9999 77.12 35.3899C76.6 35.4499 75.83 35.6899 76.19 34.7199C76.72 33.2799 76.46 31.8199 76.47 30.3699C76.51 24.6299 76.43 18.8899 76.55 13.1499C76.57 12.2199 75.43 11.0999 76.57 10.4399C77.35 9.98988 78.48 10.1399 79.45 10.0199C79.98 9.96988 80.51 9.91988 80.83 9.87988Z" fill="#151417"/>
</svg>
